# xmcd CD database file
#
# Track frame offsets:
#	150
#	18485
#	41900
#	62873
#	80739
#	99885
#	126044
#	147771
#	169023
#	192062
#	228298
#	241341
#	269383
#	293148
#	322477
#
# Disc length: 4452 seconds
#
# Revision: 0
# Processed by: cddbd v1.5.2PL0 Copyright (c) Steve Scherf et al.
# Submitted via: CDex 1.70beta2
#
DISCID=d711620f
DTITLE=jazz ethic - concert Port des Barques avril 2011
DYEAR=2011
DGENRE=Jazz
TTITLE0=Satin Doll intro
TTITLE1=Manha de carnaval
TTITLE2=Night and day
TTITLE3=Bluesette
TTITLE4=Summertime
TTITLE5=Mas que Nada
TTITLE6=What are you doing the rest of your life/et maintenant que feras-tu de ta vie?
TTITLE7=Equinox
TTITLE8=Darn that dream
TTITLE9=Meditation
TTITLE10=Corcovado
TTITLE11=Les feuilles mortes/autumn leaves
TTITLE12=My one and only love
TTITLE13=Nostalgia in Times Square
TTITLE14=Satin Doll finale
EXTD=YEAR: 2011
EXTT0=
EXTT1=
EXTT2=
EXTT3=
EXTT4=
EXTT5=
EXTT6=
EXTT7=
EXTT8=
EXTT9=
EXTT10=
EXTT11=
EXTT12=
EXTT13=
EXTT14=
PLAYORDER=
